<svg xmlns="http://www.w3.org/2000/svg" xmlns:svg="http://www.w3.org/2000/svg" xmlns:xlink="http://www.w3.org/1999/xlink" id="svg2424" width="1200" height="1200" version="1.0"><defs id="defs2426"><linearGradient id="path1082_2_" x1="112.499" x2="112.499" y1="6.137" y2="129.347" gradientTransform="translate(287,-83)" gradientUnits="userSpaceOnUse"><stop id="stop193" offset="0" style="stop-color:#fff;stop-opacity:0"/><stop id="stop195" offset="1" style="stop-color:#fff;stop-opacity:.27450982"/><midPointStop id="midPointStop197" offset="0" style="stop-color:#fff"/><midPointStop id="midPointStop199" offset=".5" style="stop-color:#fff"/><midPointStop id="midPointStop201" offset="1" style="stop-color:#000"/></linearGradient><linearGradient id="linearGradient3388"><stop style="stop-color:#000;stop-opacity:0" id="stop3390" offset="0"/><stop style="stop-color:#000;stop-opacity:.37113401" id="stop3392" offset="1"/></linearGradient><linearGradient id="linearGradient4346"><stop style="stop-color:#00bdec;stop-opacity:1" id="stop4348" offset="0"/><stop style="stop-color:#40bfde;stop-opacity:1" id="stop4350" offset="1"/></linearGradient><linearGradient id="linearGradient4352" x1="400.614" x2="616.486" y1="634.151" y2="666.978" gradientUnits="userSpaceOnUse" xlink:href="#linearGradient4346"/><linearGradient id="linearGradient5323"><stop style="stop-color:#6e6e6e;stop-opacity:1" id="stop5325" offset="0"/><stop style="stop-color:#4d4d4d;stop-opacity:1" id="stop5327" offset="1"/></linearGradient><linearGradient id="linearGradient5329" x1="291.836" x2="650.814" y1="238.082" y2="348.969" gradientUnits="userSpaceOnUse" xlink:href="#linearGradient5323"/><linearGradient id="linearGradient2231" x1="490.723" x2="490.723" y1="237.724" y2="183.964" gradientTransform="matrix(0.6551957,0,0,0.6551957,-113.28394,148.38658)" gradientUnits="userSpaceOnUse" xlink:href="#linearGradient3388"/><linearGradient id="linearGradient2261" x1="541.335" x2="606.912" y1="104.507" y2="303.14" gradientTransform="matrix(-0.6710118,0,0,0.6709741,706.10281,-117.5032)" gradientUnits="userSpaceOnUse" xlink:href="#path1082_2_"/><linearGradient id="linearGradient2198" x1="541.335" x2="606.912" y1="104.507" y2="303.14" gradientTransform="matrix(-0.6710118,0,0,0.6709741,901.93156,-57.609066)" gradientUnits="userSpaceOnUse" xlink:href="#path1082_2_"/><linearGradient id="linearGradient2493" x1="400.614" x2="616.486" y1="634.151" y2="666.978" gradientUnits="userSpaceOnUse" xlink:href="#linearGradient4346"/><linearGradient id="linearGradient2467" x1="400.614" x2="616.486" y1="634.151" y2="666.978" gradientUnits="userSpaceOnUse" xlink:href="#linearGradient4346"/><linearGradient id="linearGradient2461"><stop id="stop2463" offset="0" style="stop-color:#26a7e8;stop-opacity:1"/><stop id="stop2465" offset="1" style="stop-color:#3ab0ea;stop-opacity:1"/></linearGradient><linearGradient id="linearGradient2454"><stop id="stop2456" offset="0" style="stop-color:#000;stop-opacity:0"/><stop id="stop2458" offset="1" style="stop-color:#000;stop-opacity:.37113401"/></linearGradient><linearGradient id="linearGradient2544" x1="541.335" x2="606.912" y1="104.507" y2="303.14" gradientTransform="matrix(-0.3937741,0,0,0.393752,357.51969,122.00151)" gradientUnits="userSpaceOnUse" xlink:href="#path1082_2_"/><linearGradient id="linearGradient2441" x1="112.499" x2="112.499" y1="6.137" y2="129.347" gradientTransform="translate(287,-83)" gradientUnits="userSpaceOnUse"><stop style="stop-color:#fff;stop-opacity:0" id="stop2443" offset="0"/><stop style="stop-color:#fff;stop-opacity:.27450982" id="stop2445" offset="1"/><midPointStop style="stop-color:#fff" id="midPointStop2447" offset="0"/><midPointStop style="stop-color:#fff" id="midPointStop2449" offset=".5"/><midPointStop style="stop-color:#000" id="midPointStop2451" offset="1"/></linearGradient><linearGradient id="linearGradient3885" x1="291.836" x2="650.814" y1="238.082" y2="348.969" gradientUnits="userSpaceOnUse" xlink:href="#linearGradient5323"/><linearGradient id="linearGradient3887" x1="400.614" x2="616.486" y1="634.151" y2="666.978" gradientUnits="userSpaceOnUse" xlink:href="#linearGradient4346"/><linearGradient id="linearGradient3909" x1="291.836" x2="650.814" y1="238.082" y2="348.969" gradientUnits="userSpaceOnUse" xlink:href="#linearGradient5323"/><linearGradient id="linearGradient3919" x1="400.614" x2="616.486" y1="634.151" y2="666.978" gradientUnits="userSpaceOnUse" xlink:href="#linearGradient4346"/></defs><metadata id="metadata2429"/><g id="layer1" transform="translate(-282.61862,943.22883)"><path id="path2518" d="M 882.61865,-943.22883 C 829.20255,-812.26692 796.94752,-726.48822 737.47574,-599.41933 C 773.93946,-560.76785 818.69472,-515.96992 891.38055,-465.13363 C 813.23607,-497.2896 759.97747,-529.3469 720.14241,-562.84791 C 644.02995,-404.02747 524.60809,-178.03458 282.61862,256.77116 C 472.77998,146.98764 620.28382,79.374079 757.66621,53.533075 C 751.77121,28.166036 748.48618,0.63719968 748.71383,-27.99073 L 748.90431,-33.895492 C 751.92237,-155.74874 815.33905,-249.59127 890.42817,-243.22881 C 965.5173,-236.86648 1023.9222,-132.70112 1020.9043,-10.847874 C 1020.3367,12.068513 1017.7997,34.03703 1013.2853,54.485456 C 1149.1459,81.096533 1295.0793,148.50133 1482.6186,256.77116 C 1445.6232,188.65993 1412.4387,127.43625 1380.9043,68.961646 C 1331.2325,30.4626 1279.5397,-19.652018 1173.8567,-73.89549 C 1246.4972,-55.020428 1298.6497,-33.284261 1339.1901,-8.9431122 C 1018.5707,-605.88047 992.5662,-685.21328 882.61865,-943.22883 z" style="fill:#1793d1;fill-opacity:1;fill-rule:evenodd;stroke:none;stroke-width:1;stroke-linecap:round;stroke-linejoin:round;stroke-miterlimit:10;stroke-dasharray:none;stroke-opacity:1"/></g></svg>