<svg xmlns="http://www.w3.org/2000/svg" xmlns:xlink="http://www.w3.org/1999/xlink" width="512" height="512" version="1.1" viewBox="0 0 512 512"><defs><linearGradient id="linearGradient-1" x1="50%" x2="50%" y1="100%" y2="0%"><stop offset="0%" stop-color="#420C5D"/><stop offset="100%" stop-color="#951AD1"/></linearGradient><path id="path-2" d="M25,29 C152.577777,29 256,131.974508 256,259 C256,386.025492 152.577777,489 25,489 L25,29 Z"/><filter id="filter-3" width="129.4%" height="114.8%" x="-18.2%" y="-7.4%" filterUnits="objectBoundingBox"><feOffset dx="-8" dy="0" in="SourceAlpha" result="shadowOffsetOuter1"/><feGaussianBlur in="shadowOffsetOuter1" result="shadowBlurOuter1" stdDeviation="10"/><feColorMatrix in="shadowBlurOuter1" type="matrix" values="0 0 0 0 0.250980392 0 0 0 0 0.250980392 0 0 0 0 0.250980392 0 0 0 0.2 0"/></filter></defs><g id="tor-browser-icon" fill="none" fill-rule="evenodd" stroke="none" stroke-width="1"><g id="icon_512x512"><g id="Group"><g id="tb_icon/Stable"><g id="Stable"><circle id="background" cx="256" cy="256" r="246" fill="#F2E4FF" fill-rule="nonzero"/><path id="center" fill="url(#linearGradient-1)" d="M256.525143,465.439707 L256.525143,434.406609 C354.826191,434.122748 434.420802,354.364917 434.420802,255.992903 C434.420802,157.627987 354.826191,77.8701558 256.525143,77.5862948 L256.525143,46.5531962 C371.964296,46.8441537 465.446804,140.489882 465.446804,255.992903 C465.446804,371.503022 371.964296,465.155846 256.525143,465.439707 Z M256.525143,356.820314 C311.970283,356.529356 356.8487,311.516106 356.8487,255.992903 C356.8487,200.476798 311.970283,155.463547 256.525143,155.17259 L256.525143,124.146588 C329.115485,124.430449 387.881799,183.338693 387.881799,255.992903 C387.881799,328.654211 329.115485,387.562455 256.525143,387.846316 L256.525143,356.820314 Z M256.525143,201.718689 C286.266674,202.00255 310.3026,226.180407 310.3026,255.992903 C310.3026,285.812497 286.266674,309.990353 256.525143,310.274214 L256.525143,201.718689 Z M0,255.992903 C0,397.384044 114.60886,512 256,512 C397.384044,512 512,397.384044 512,255.992903 C512,114.60886 397.384044,0 256,0 C114.60886,0 0,114.60886 0,255.992903 Z"/><g id="half" transform="translate(140.500000, 259.000000) scale(-1, 1) translate(-140.500000, -259.000000)"><use fill="#000" fill-opacity="1" filter="url(#filter-3)" xlink:href="#path-2"/><use fill="url(#linearGradient-1)" fill-rule="evenodd" xlink:href="#path-2"/></g></g></g></g></g></g></svg>