<svg xmlns="http://www.w3.org/2000/svg" xmlns:xlink="http://www.w3.org/1999/xlink" width="36" height="36" version="1.1" viewBox="0 0 36 36"><title>icon</title><desc>Created with Sketch.</desc><defs><linearGradient id="linearGradient-1" x1="24.289%" x2="54.468%" y1="-20.078%" y2="44.781%"><stop offset="0%" stop-color="#000F55" stop-opacity=".94"/><stop offset="11%" stop-color="#000F55" stop-opacity=".72"/><stop offset="35%" stop-color="#000F55" stop-opacity=".33"/><stop offset="54%" stop-color="#000F55" stop-opacity=".09"/><stop offset="67%" stop-color="#000F55" stop-opacity="0"/></linearGradient><linearGradient id="linearGradient-2" x1="13.128%" x2="45.487%" y1="-25.741%" y2="40.861%"><stop offset="0%" stop-color="#000F55" stop-opacity=".282"/><stop offset="100%" stop-color="#000F55" stop-opacity="0"/></linearGradient><linearGradient id="linearGradient-3" x1="-52.305%" x2="43.976%" y1="110.56%" y2="57.399%"><stop offset="0%" stop-color="#266900"/><stop offset="9%" stop-color="#3E8514"/><stop offset="21%" stop-color="#549E26"/><stop offset="34%" stop-color="#66B335"/><stop offset="48%" stop-color="#73C13F"/><stop offset="65%" stop-color="#7AC945"/><stop offset="94%" stop-color="#7CCC47"/></linearGradient><linearGradient id="linearGradient-4" x1="35.88%" x2="72.983%" y1="28.908%" y2="58.198%"><stop offset="0%" stop-color="#000F55" stop-opacity=".296"/><stop offset="100%" stop-color="#000F55" stop-opacity="0"/></linearGradient><linearGradient id="linearGradient-5" x1="54.964%" x2="78.978%" y1="25.541%" y2="70.126%"><stop offset="0%" stop-color="#000F55" stop-opacity=".413"/><stop offset="100%" stop-color="#000F55" stop-opacity="0"/></linearGradient><linearGradient id="linearGradient-6" x1="-10.909%" x2="71.669%" y1="-70.117%" y2="113.882%"><stop offset="0%" stop-color="#266900"/><stop offset="10%" stop-color="#357A0C"/><stop offset="34%" stop-color="#539D26"/><stop offset="57%" stop-color="#6AB738"/><stop offset="78%" stop-color="#77C743"/><stop offset="94%" stop-color="#7CCC47"/></linearGradient><linearGradient id="linearGradient-7" x1="-94.833%" x2="51.321%" y1="106.074%" y2="44.693%"><stop offset="0%" stop-color="#266900"/><stop offset="9%" stop-color="#3E8514"/><stop offset="21%" stop-color="#549E26"/><stop offset="34%" stop-color="#66B335"/><stop offset="48%" stop-color="#73C13F"/><stop offset="65%" stop-color="#7AC945"/><stop offset="94%" stop-color="#7CCC47"/></linearGradient></defs><g id="icon" fill="none" fill-rule="evenodd" stroke="none" stroke-width="1"><g id="Horizon_Final" transform="translate(2.000000, 3.000000)"><polygon id="Path" fill="url(#linearGradient-1)" points="31.959 22.854 16.986 22.939 .041 13.283 25.433 2.92 31.959 6.641" opacity=".5"/><polygon id="Path" fill="url(#linearGradient-2)" points="31.959 29.977 14.366 29.977 2.005 22.925 27.02 17.154 31.959 19.97" opacity=".5"/><path id="Path" fill="url(#linearGradient-3)" d="M13.2580645,-9.34628045 L22.6129032,-9.34628045 L22.6129032,22.5720869 L13.2580645,22.5720869 C11.1201881,22.5720869 9.38709677,20.8177741 9.38709677,18.6537196 L9.38709677,-5.4279131 C9.38709677,-7.59196763 11.1201881,-9.34628045 13.2580645,-9.34628045 Z" transform="translate(16.000000, 6.612903) rotate(90.000000) translate(-16.000000, -6.612903)"/><path id="Path" fill="url(#linearGradient-4)" d="M28.9183673,22.6693548 L27.2432653,22.6927419 L8.76408163,12.1629032 L19.8367347,4.49274194 L31.9567347,11.4040323 L31.9567347,19.6225806 C31.9564804,21.2876097 30.6035928,22.6442406 28.9183673,22.6693548 Z" opacity=".5"/><path id="Path" fill="url(#linearGradient-5)" d="M28.9795918,22.6008065 L27.8114286,22.6137097 L9.5844898,12.2298387 L27.6620408,10.8330645 L31.9591837,13.2830645 L31.9591837,19.6225806 C31.9592956,21.2539616 30.6308369,22.5818112 28.9795918,22.6008065 Z" opacity=".5"/><path id="Path" fill="#FFF" d="M24.4669388,20.8516129 C27.5453063,20.8516129 30.0408163,18.3862905 30.0408163,15.3451613 C30.0408163,12.304032 27.5453063,9.83870968 24.4669388,9.83870968 L24.4604082,9.83870968 C23.3813972,6.14828225 19.9617973,3.60772974 16.0734694,3.60772974 C12.1851415,3.60772974 8.76554157,6.14828225 7.68653061,9.83870968 L7.68081633,9.83870968 C4.60244876,9.83870968 2.10693878,12.304032 2.10693878,15.3451613 C2.10693878,18.3862905 4.60244876,20.8516129 7.68081633,20.8516129 L24.4669388,20.8516129 Z"/><path id="Path" fill="url(#linearGradient-6)" d="M20.0236735,25.8870968 L11.957551,25.8870968 C11.6756696,25.8882632 11.4079584,26.009333 11.2228571,26.2193548 L9.30367347,28.3967742 C9.0517501,28.6826068 8.99190847,29.0874114 9.15056667,29.4324801 C9.30922487,29.7775488 9.65717805,29.9993634 10.0408163,30 L21.9591837,30 C22.3430288,29.9989673 22.6908955,29.7765569 22.84907,29.4310462 C23.0072444,29.0855356 22.946578,28.6805964 22.6938776,28.3951613 L20.7640816,26.2177419 C20.5773676,26.0068363 20.3072904,25.8862275 20.0236735,25.8870968 Z"/><path id="Path" fill="url(#linearGradient-7)" d="M12.8548387,4.36339697 L15.2741935,4.36339697 C17.41207,4.36339697 19.1451613,6.11770979 19.1451613,8.28176432 L19.1451613,32.363397 C19.1451613,34.5274515 17.41207,36.2817643 15.2741935,36.2817643 L12.8548387,36.2817643 L12.8548387,4.36339697 Z" transform="translate(16.000000, 20.322581) rotate(90.000000) translate(-16.000000, -20.322581)"/></g></g></svg>